<svg viewBox="-561 347 100 100" xmlns="http://www.w3.org/2000/svg"><path d="M-561 401.337c0 4.531.424 8.631 1.272 12.298.847 3.667 2.021 6.854 3.521 9.56s3.407 5.086 5.721 7.139a32.693 32.693 0 0 0 7.53 5.037c2.706 1.304 5.795 2.363 9.266 3.178a76.523 76.523 0 0 0 10.636 1.712c3.619.326 7.596.489 11.931.489 4.368 0 8.362-.163 11.98-.489 3.619-.326 7.172-.897 10.66-1.712s6.593-1.874 9.315-3.178 5.249-2.983 7.58-5.037a27.121 27.121 0 0 0 5.77-7.139c1.516-2.705 2.697-5.892 3.545-9.56.848-3.668 1.271-7.767 1.271-12.298 0-8.085-2.706-15.078-8.117-20.978.293-.782.562-1.671.807-2.665s.473-2.412.685-4.254c.212-1.842.13-3.969-.245-6.381-.375-2.413-1.068-4.874-2.079-7.384l-.733-.147c-.522-.098-1.378-.073-2.567.073-1.189.146-2.575.44-4.156.88-1.581.44-3.619 1.288-6.112 2.543-2.494 1.255-5.126 2.828-7.897 4.719-4.759-1.304-11.296-1.956-19.609-1.956-8.28 0-14.8.652-19.56 1.956-2.771-1.891-5.42-3.464-7.946-4.719-2.526-1.255-4.539-2.103-6.039-2.543-1.499-.44-2.901-.725-4.205-.856-1.304-.13-2.127-.171-2.47-.122a4.87 4.87 0 0 0-.807.171c-1.011 2.51-1.703 4.971-2.078 7.384-.375 2.412-.456 4.54-.245 6.381.212 1.842.44 3.26.685 4.254.245.994.513 1.883.807 2.665-5.412 5.901-8.117 12.893-8.117 20.978v.001zm12.274 12.274c0-4.694 2.135-8.998 6.406-12.91 1.271-1.174 2.755-2.062 4.45-2.665 1.695-.603 3.61-.945 5.746-1.027a63.936 63.936 0 0 1 6.137.049c1.956.114 4.368.269 7.237.464 2.869.196 5.346.293 7.433.293 2.087 0 4.564-.098 7.433-.293a742.02 742.02 0 0 1 7.237-.464 63.932 63.932 0 0 1 6.137-.049c2.135.082 4.05.424 5.746 1.027 1.695.603 3.178 1.491 4.45 2.665 4.271 3.847 6.406 8.15 6.406 12.91 0 2.804-.351 5.289-1.052 7.457-.701 2.168-1.597 3.985-2.69 5.452-1.092 1.467-2.608 2.714-4.548 3.741-1.94 1.027-3.83 1.817-5.672 2.372-1.842.554-4.206.986-7.091 1.296s-5.461.497-7.726.562c-2.266.065-5.143.098-8.631.098-3.488 0-6.365-.033-8.631-.098s-4.841-.253-7.726-.562c-2.885-.31-5.248-.742-7.09-1.296-1.842-.554-3.733-1.345-5.672-2.372-1.94-1.027-3.456-2.274-4.548-3.741s-1.989-3.284-2.689-5.452c-.701-2.168-1.051-4.654-1.051-7.457zm50.226-.986c0-5.178 2.798-9.375 6.25-9.375s6.25 4.197 6.25 9.375-2.798 9.375-6.25 9.375-6.25-4.197-6.25-9.375zm-37.5 0c0-5.178 2.798-9.375 6.25-9.375s6.25 4.197 6.25 9.375-2.798 9.375-6.25 9.375-6.25-4.197-6.25-9.375z"/></svg>