<svg xmlns="http://www.w3.org/2000/svg" viewBox="0 0 12 12" fill-rule="evenodd"><path d="M6 12A6 6 0 1 0 6 0a6 6 0 0 0 0 12zm.793-10.129a.721.721 0 0 0-.583-.264.82.82 0 0 0-.594.264.964.964 0 0 0-.286.649.92.92 0 0 0 .21.638.78.78 0 0 0 .604.253.803.803 0 0 0 .605-.253.954.954 0 0 0 .253-.638.87.87 0 0 0-.209-.649zm-.176 2.86c-.146-.235-.41-.352-.792-.352-.249 0-.473.059-.67.176-.191.117-.36.268-.507.451a2.578 2.578 0 0 0-.34.561 2.466 2.466 0 0 0-.177.528l.594.176c.096-.33.187-.557.275-.682.088-.125.173-.187.253-.187.044 0 .085.018.121.055.037.03.055.106.055.231 0 .176-.018.4-.055.671-.036.264-.08.55-.132.858a51.94 51.94 0 0 0-.12.902 6.242 6.242 0 0 0-.056.759c0 .389.074.693.22.913.154.22.433.33.836.33.25 0 .47-.059.66-.176.198-.117.367-.264.506-.44.14-.183.25-.374.33-.572.088-.198.147-.374.176-.528L7.2 8.229c-.095.33-.187.557-.275.682-.088.125-.176.187-.264.187-.036 0-.073-.018-.11-.055-.036-.037-.055-.114-.055-.231 0-.125.019-.323.055-.594l.121-.902c.044-.33.085-.645.121-.946.037-.3.055-.539.055-.715 0-.389-.077-.697-.23-.924z"/></svg>