<svg xmlns="http://www.w3.org/2000/svg" class="icon-help" viewBox="0 0 100 100">
<path d="M75,0H25C11.19,0,0,11.193,0,25v50c0,13.802,11.19,25,25,25h50c13.811,0,25-11.198,25-25V25C100,11.193,88.811,0,75,0z&#10;   M57.203,85.067H41.504V72.542h15.699V85.067L57.203,85.067z M73.357,42.041c-0.84,2.066-1.873,3.834-3.102,5.298&#10;  c-1.235,1.474-2.604,2.718-4.101,3.751c-1.498,1.035-2.922,2.066-4.249,3.101c-1.333,1.034-1.553,2.214-2.596,3.547&#10;  c-1.025,1.335-0.977,3.004-0.977,5.006v3.924H41.668v-4.623c0-2.864,1.366-5.265,2.27-7.202c0.896-1.935,2.255-3.581,3.459-4.947&#10;  c1.196-1.367,2.62-2.556,3.955-3.557c1.327-0.993,2.637-1.993,3.776-2.995c1.123-1.001,2.083-2.1,2.783-3.304&#10;  c0.7-1.197,1.043-2.694,0.977-4.5c0-3.06-0.74-5.33-2.245-6.795c-1.498-1.465-3.582-2.206-6.25-2.206c-1.8,0-3.337,0.351-4.639,1.05&#10;  c-1.303,0.7-2.369,1.635-3.199,2.808c-0.837,1.163-1.448,3.593-1.847,5.156c-0.407,1.57-0.602,6.115-0.602,6.115H25.399&#10;  c0.073-8.333,0.684-7.963,1.855-10.965c1.164-2.995,2.8-6.132,4.899-8.33c2.099-2.197,4.63-4.179,7.601-5.417&#10;  c2.962-1.228,6.283-1.977,9.945-1.977c4.736,0,8.683,0.581,11.856,1.876c3.167,1.302,5.713,2.889,7.65,4.817&#10;  c1.929,1.937,3.312,4.004,4.149,6.234c0.831,2.237,1.245,4.313,1.245,6.242C74.601,37.354,74.187,39.975,73.357,42.041z"/>
</svg>