<svg viewBox="0 0 23 17" xmlns="http://www.w3.org/2000/svg"><path d="M18.18 5.76a1.221 1.221 0 0 0-.461-.273 2.044 2.044 0 0 0-.663-.096H16v2.772h1.056c.528 0 .908-.126 1.14-.378.232-.252.348-.604.348-1.056 0-.2-.03-.382-.09-.546a1.118 1.118 0 0 0-.273-.423zM21 0H2C.9 0 0 .9 0 2v13c0 1.1.9 2 2 2h19c1.1 0 2-.9 2-2V2c0-1.1-.9-2-2-2zM9.208 4.605a.936.936 0 0 1-.051.306c-.034.1-.081.194-.141.282l-4.104 5.862h4.164v1.56H2.332v-.78c0-.093.016-.184.048-.273a.951.951 0 0 1 .132-.25l4.116-5.88h-3.96v-1.56h6.54zm3.145 8.01h-2.041V3.872h2.04zm8.01-4.686c-.141.364-.355.676-.643.936-.288.26-.654.462-1.095.609-.442.145-.965.218-1.57.218H16v2.922h-2.028V3.873h3.084c.616 0 1.145.073 1.587.219.442.146.806.347 1.092.603.286.256.496.558.633.906.136.348.204.724.204 1.128 0 .436-.07.836-.21 1.2z"/></svg>