<svg xmlns="http://www.w3.org/2000/svg" viewBox="0 0 100 100" id="icon-gear" width="10" height="10">
<path d="M87.687,45.077c-0.313-2.433-0.816-4.807-1.542-7.079l8.145-11.73l-5.827-7.515l-0.094-0.123l-5.824-7.514&#10;                    l-12.955,5.577c-2.041-1.265-4.192-2.362-6.459-3.219L59.42,0h-9.34h-0.153h-9.341l-3.709,13.474&#10;                    c-2.27,0.857-4.421,1.955-6.463,3.222l-12.957-5.577l-5.825,7.514l-0.097,0.124l-5.822,7.517l8.146,11.731&#10;                    c-0.726,2.271-1.233,4.645-1.544,7.079L0,52.032l2.08,9.375l0.033,0.15l2.08,9.375l14.001,0.761c1.295,2.028,2.771,3.926,4.4,5.668&#10;                    l-2.396,14.227l8.416,4.173l0.138,0.067L37.169,100l9.309-10.796c1.161,0.109,2.335,0.173,3.524,0.173s2.358-0.074,3.52-0.184&#10;                    l9.317,10.804l8.415-4.173l0.141-0.066l8.413-4.172l-2.396-14.228c1.628-1.741,3.104-3.64,4.4-5.672l14-0.759l2.078-9.375&#10;                    l0.035-0.154L100,52.025L87.687,45.077z M50.003,34.51c8.435,0,15.272,7.035,15.272,15.719c0,8.679-6.839,15.717-15.272,15.717&#10;                    c-8.436,0-15.272-7.038-15.272-15.717C34.731,41.545,41.569,34.51,50.003,34.51z"/>
</svg>