<svg viewBox="0 0 100 100" xmlns="http://www.w3.org/2000/svg"><path d="M84.339 62.504a15.805 15.805 0 0 0-11.313 4.721 40.187 40.187 0 0 1-1.578-1.572c-6.965-7.211-14.451-19.189-22.311-29.678-7.977-10.209-16.196-20.413-29.012-20.906H0v14.37h20.126c2.555-.111 6.556 1.993 11.208 6.914 6.961 7.197 14.454 19.171 22.315 29.662 4.822 6.164 9.759 12.293 15.741 16.289 1.99 6.191 7.93 10.688 14.949 10.688 8.648 0 15.661-6.824 15.661-15.244s-7.013-15.244-15.661-15.244zM51.541 29.438h18.986c2.637 4.795 7.831 8.059 13.811 8.059 8.648 0 15.661-6.824 15.661-15.243S92.986 7.01 84.338 7.01c-5.979 0-11.174 3.264-13.811 8.058H36.3c6.007 3.551 10.861 8.924 15.241 14.37z"/></svg>